<?xml version="1.0" standalone="no"?><!DOCTYPE svg PUBLIC "-//W3C//DTD SVG 1.1//EN" "http://www.w3.org/Graphics/SVG/1.1/DTD/svg11.dtd"><svg t="1526261513310" class="icon" style="" viewBox="0 0 1024 1024" version="1.1" xmlns="http://www.w3.org/2000/svg" p-id="2529" xmlns:xlink="http://www.w3.org/1999/xlink" width="200" height="200"><defs><style type="text/css"></style></defs><path d="M773.44 848a32 32 0 0 1-22.72-9.28 32 32 0 0 1 0-45.44L873.28 672a32 32 0 0 1 45.44 45.44l-122.56 122.56a32 32 0 0 1-22.72 8z" p-id="2530" fill="#2c2c2c"></path><path d="M773.44 848a32 32 0 0 1-32-32v-576a32 32 0 0 1 64 0v576a32 32 0 0 1-32 32zM645.44 272h-448a32 32 0 0 1 0-64h448a32 32 0 0 1 0 64zM645.44 464h-448a32 32 0 0 1 0-64h448a32 32 0 0 1 0 64zM645.44 656h-448a32 32 0 0 1 0-64h448a32 32 0 0 1 0 64zM645.44 848h-448a32 32 0 0 1 0-64h448a32 32 0 0 1 0 64z" p-id="2531" fill="#2c2c2c"></path></svg>